# xmcd
#
# Track frame offsets: 
#        150
#        21665
#        43929
#        65430
#
# Disc length: 1166 seconds
#
# Revision: 9
# Processed by: cddbd v1.5.2PL0 Copyright (c) Steve Scherf et al.
# Submitted via: ExactAudioCopy v1.0b3
#
DISCID=37048c04
DTITLE=fripSide - way to answer
DYEAR=2011
DGENRE=Game
TTITLE0=way to answer
TTITLE1=last fortune
TTITLE2=way to answer (Instrumental)
TTITLE3=last fortune (Instrumental)
EXTD=
EXTT0=
EXTT1=
EXTT2=
EXTT3=
PLAYORDER=
